<?xml version="1.0" encoding="utf-8" ?>
<svg xmlns="http://www.w3.org/2000/svg" xmlns:xlink="http://www.w3.org/1999/xlink" width="1209" height="1209">
	<path fill="#F46338" transform="matrix(1.18066 0 0 1.18066 0.000244141 0)" d="M864.841 800.872C867.796 807.727 870.094 814.638 867.034 821.951C864.019 829.156 856.989 833.619 849.968 836.33C836.425 841.556 819.692 840.502 806.56 834.513C804.308 833.485 802.292 832.32 800.271 830.885C802.606 824.36 803.657 819.061 803.66 812.082C805.471 811.617 807.307 810.677 809.045 809.967C817.146 815.459 824.882 818.346 834.791 817.729C847.882 816.913 856.419 810.292 864.841 800.872Z"/>
	<path fill="#F46338" transform="matrix(1.18066 0 0 1.18066 0.000244141 0)" d="M849.778 743.643C887.206 712.78 917.913 672.876 932.122 626.032C935.437 615.106 937.13 603.91 939.448 592.76C940.975 598.544 940.933 605.133 941.242 611.102C942.979 644.673 934.613 677.015 917.747 706.014C902.989 731.389 888.957 744.546 868.387 764.856C863.855 755.084 859.1 749.18 849.778 743.643Z"/>
	<path fill="#F46338" transform="matrix(1.18066 0 0 1.18066 0.000244141 0)" d="M204.54 375.168C201.293 365.438 199.754 354.503 199.477 344.297C198.575 311.151 215.603 279.476 238.08 255.995C271.158 221.44 318.121 198.215 363.572 184.828C372.213 182.283 380.966 180.489 389.737 178.466C401.382 175.78 413.011 172.044 425.026 171.789C417.187 177.248 401.12 181.703 391.709 185.799C354.647 201.931 313.52 225.761 291.874 261.041C286.641 270.16 282.02 279.058 279.524 289.361C278.493 295.663 277.404 301.958 276.645 308.3C270.127 345.37 281.082 373.569 302.108 403.523Q304.763 407.336 307.551 411.053C327.227 433.602 345.919 452.007 368.829 471.245C375.552 476.508 382.783 481.863 388.513 488.209C388.827 492.277 403.358 507.457 407.002 511.65C397.702 510.709 388.73 508.334 379.701 506.021C357.997 500.46 337.165 493.756 316.709 484.506C276.233 466.202 236.218 437.035 214.339 397.572C210.351 390.379 207.428 382.843 204.54 375.168Z"/>
	<path fill="#F0C894" transform="matrix(1.18066 0 0 1.18066 0.000244141 0)" d="M368.829 471.245C368.313 471.081 367.96 470.986 367.478 470.782C362.529 468.696 357.717 464.86 353.217 461.879C341.73 454.271 311.741 435.124 306.868 422.547C305.189 418.215 305.747 415.227 307.551 411.053C327.227 433.602 345.919 452.007 368.829 471.245Z"/>
	<path fill="#F6B260" transform="matrix(1.18066 0 0 1.18066 0.000244141 0)" d="M279.524 289.361C277.693 289.685 275.64 290.71 273.889 291.364C267.193 293.862 260.674 295.996 253.429 295.088C249.227 294.562 244.833 292.986 242.281 289.414C240.399 286.779 240.027 283.496 240.577 280.364C241.611 274.484 245.708 269.508 250.562 266.253C262.548 258.214 278.258 258.335 291.874 261.041C286.641 270.16 282.02 279.058 279.524 289.361Z"/>
	<path fill="#F0C894" transform="matrix(1.18066 0 0 1.18066 0.000244141 0)" d="M229.558 331.069Q230.544 331.005 231.533 331.003Q232.521 331.001 233.508 331.06Q234.495 331.12 235.476 331.242Q236.457 331.363 237.428 331.546Q238.4 331.728 239.358 331.971Q240.316 332.215 241.257 332.517Q242.198 332.82 243.118 333.181Q244.038 333.542 244.934 333.96C247.705 335.276 250.439 337.008 252.44 339.36C263.494 352.349 270.611 368.318 279.328 382.859C285.603 393.327 293.742 402.939 297.731 414.602C299.212 418.935 299.594 423.729 297.408 427.909C294.724 433.041 289.362 435.022 284.177 436.64C281.08 436.577 277.763 436.006 274.983 434.595C263.647 428.839 256.806 414.955 249.014 405.425C238.064 392.03 219.862 374.672 214.832 358.108C213.099 352.4 212.519 345.487 215.602 340.131C218.578 334.958 224.056 332.573 229.558 331.069Z"/>
	<path fill="#F46338" transform="matrix(1.18066 0 0 1.18066 0.000244141 0)" d="M84.1039 591.885C91.5848 657.355 130.765 711.938 181.361 752.184C287.446 836.569 448.606 867.794 581.469 852.498C617.654 848.332 653.82 842.608 688.724 831.916C696.904 829.411 704.708 826.189 712.555 822.802C716.727 821.001 721.469 818.329 725.855 817.272C725.88 827.052 730.961 837.871 737.858 844.712Q738.509 845.355 739.192 845.965Q739.874 846.575 740.586 847.151Q741.298 847.727 742.037 848.266Q742.777 848.806 743.542 849.308Q744.307 849.81 745.096 850.274Q745.886 850.738 746.697 851.162Q747.508 851.586 748.339 851.97Q749.171 852.353 750.02 852.695Q750.869 853.037 751.734 853.336Q752.599 853.636 753.478 853.892Q754.357 854.148 755.247 854.36Q756.138 854.573 757.038 854.74Q757.938 854.908 758.845 855.031Q759.752 855.155 760.664 855.233Q761.576 855.311 762.491 855.344Q763.406 855.377 764.321 855.364C774.855 855.206 785.251 850.263 792.45 842.656C794.56 840.426 796.392 837.98 798.103 835.436Q799.201 836.203 800.025 837.259C803.214 841.332 804.199 847.627 803.487 852.634C802.497 859.587 798.278 865.518 792.633 869.53C782.844 876.485 769.466 878.057 757.872 876.063C745.204 873.885 735.665 868.191 728.299 857.68C717.112 862.223 706.069 867.057 694.603 870.875C633.47 891.233 566.983 899.018 502.703 897.949Q498.356 897.916 494.01 897.817Q489.664 897.718 485.32 897.552Q480.976 897.387 476.635 897.156Q472.295 896.924 467.958 896.627Q463.621 896.33 459.289 895.966Q454.957 895.603 450.631 895.174Q446.305 894.745 441.987 894.25Q437.668 893.755 433.357 893.194Q429.046 892.634 424.745 892.008Q420.443 891.382 416.151 890.69Q411.859 889.999 407.579 889.242Q403.298 888.485 399.029 887.664Q394.761 886.842 390.505 885.955Q386.249 885.069 382.007 884.117Q377.766 883.166 373.539 882.151Q369.312 881.135 365.101 880.055Q360.891 878.976 356.697 877.832Q352.503 876.688 348.327 875.481Q344.151 874.273 339.993 873.003Q335.836 871.732 331.699 870.398Q327.562 869.064 323.445 867.667Q319.328 866.271 315.234 864.811Q311.139 863.352 307.066 861.831Q302.994 860.31 298.946 858.727Q294.897 857.144 290.873 855.499Q286.849 853.855 282.851 852.149Q278.852 850.444 274.88 848.678Q270.908 846.912 266.963 845.085Q263.018 843.259 259.102 841.373Q255.185 839.487 251.298 837.541Q247.41 835.596 243.553 833.591Q239.695 831.587 235.869 829.524C203.194 811.491 172.51 789.818 146.505 762.9C111.929 727.108 84.6814 682.6 82.1701 631.774Q81.5726 619.365 82.7111 606.993C83.1378 602.172 84.0509 597.38 84.1041 592.534C84.1064 592.318 84.104 592.102 84.1039 591.885Z"/>
	<path fill="#FBF7DF" transform="matrix(1.18066 0 0 1.18066 0.000244141 0)" d="M791.993 365.099C804.593 371.058 816.15 379.348 827.489 387.378C872.261 419.084 911.474 459.877 930.251 512.355C939.84 539.155 940.729 564.691 939.448 592.76C937.13 603.91 935.437 615.106 932.122 626.032C917.913 672.876 887.206 712.78 849.778 743.643C859.1 749.18 863.855 755.084 868.387 764.856C872.145 778.26 870.661 788.345 864.841 800.872C856.419 810.292 847.882 816.913 834.791 817.729C824.882 818.346 817.146 815.459 809.045 809.967C807.307 810.677 805.471 811.617 803.66 812.082C803.657 819.061 802.606 824.36 800.271 830.885L798.103 835.436C796.392 837.98 794.56 840.426 792.45 842.656C785.251 850.263 774.855 855.206 764.321 855.364Q763.406 855.377 762.491 855.344Q761.576 855.311 760.664 855.233Q759.752 855.155 758.845 855.031Q757.938 854.908 757.038 854.74Q756.138 854.573 755.247 854.36Q754.357 854.148 753.478 853.892Q752.599 853.636 751.734 853.336Q750.869 853.037 750.02 852.695Q749.171 852.353 748.339 851.97Q747.508 851.586 746.697 851.162Q745.886 850.738 745.096 850.274Q744.307 849.81 743.542 849.308Q742.777 848.806 742.037 848.266Q741.298 847.727 740.586 847.151Q739.874 846.575 739.192 845.965Q738.509 845.355 737.858 844.712C730.961 837.871 725.88 827.052 725.855 817.272C721.469 818.329 716.727 821.001 712.555 822.802C704.708 826.189 696.904 829.411 688.724 831.916C653.82 842.608 617.654 848.332 581.469 852.498C448.606 867.794 287.446 836.569 181.361 752.184C130.765 711.938 91.5848 657.355 84.1039 591.885C82.7803 573.412 83.5 553.839 87.4284 535.711C98.1289 486.333 129.695 444.221 165.705 410.179C175.495 400.925 185.545 391.449 196.9 384.118C199.393 390.053 203.177 403.321 203.376 409.681C199.036 419.555 198.214 431.254 197.326 441.9C196.527 449.74 194.951 457.583 194.383 465.422C195.748 468.893 195.378 473.878 195.872 477.663C196.69 483.943 198.61 490.393 199.115 496.634C200.73 500.94 203.083 510.666 204.976 513.919L205.242 515.343C200.524 528.993 200.701 545.084 201.112 559.379C201.189 562.064 200.832 566.041 201.903 568.406Q203.009 578.848 204.759 589.201C208.104 604.164 212.418 618.296 219.473 631.985C222.517 637.891 226.564 643.581 229.186 649.635C233.72 655.026 237.816 660.993 239.948 667.79C262.554 694.121 289.386 713.164 320.669 727.988C330.317 732.56 340.392 736.98 350.596 740.162C425.076 767.935 526.087 775.102 603.904 759.735C677.316 745.238 764.426 709.484 807.561 645.18C810.724 638.878 813.793 632.703 816.036 625.997C821.803 607.761 818.424 590.173 813.776 572.138C814.143 568.122 815.791 564.093 816.978 560.246C819.87 550.875 824.046 537.633 822.531 527.792C822.502 524.153 823.234 520.238 823.582 516.594C824.1 511.179 824.366 505.805 824.484 500.367C823.105 494.124 823.176 487.564 821.826 481.283C818.619 466.362 811.63 452.842 804.805 439.335C802.278 436.144 799.806 432.989 797.621 429.551C795.878 423.978 796.948 416.362 796.261 410.414C795.158 400.877 792.65 391.271 789.991 382.056C790.091 376.533 791.286 370.599 791.993 365.099Z"/>
	<path fill="#64CFD1" transform="matrix(1.18066 0 0 1.18066 0.000244141 0)" d="M895.568 623.898C899.592 627.862 903.016 632.331 903.2 638.227C903.363 643.44 900.611 648.144 897.018 651.725C888.294 660.42 875.66 663.764 863.626 663.619C858.846 663.562 854.097 662.947 849.38 662.212C852.205 658.426 854.383 653.726 856.373 649.447C863.155 649.519 869.799 648.875 876.061 646.061C885.893 641.643 891.896 633.793 895.568 623.898Z"/>
	<path fill="#64CFD1" transform="matrix(1.18066 0 0 1.18066 0.000244141 0)" d="M804.805 439.335C809.126 441.774 813.23 447.023 816.664 450.649C837.466 472.611 854.376 498.556 862.551 527.906C866.612 542.48 868.066 557.522 867.989 572.615C860.394 571.869 853.776 572.003 846.536 574.664C837.331 578.27 830.601 585.025 826.707 594.066C822.373 604.131 822.256 614.443 825.306 624.864C822.185 625.021 819.117 626.058 816.036 625.997C821.803 607.761 818.424 590.173 813.776 572.138C814.143 568.122 815.791 564.093 816.978 560.246C819.87 550.875 824.046 537.633 822.531 527.792C822.502 524.153 823.234 520.238 823.582 516.594C824.1 511.179 824.366 505.805 824.484 500.367C823.105 494.124 823.176 487.564 821.826 481.283C818.619 466.362 811.63 452.842 804.805 439.335Z"/>
	<path fill="#FBF7DF" transform="matrix(1.18066 0 0 1.18066 0.000244141 0)" d="M824.484 500.367C836.372 519.973 846.795 551.588 846.536 574.664C837.331 578.27 830.601 585.025 826.707 594.066C822.373 604.131 822.256 614.443 825.306 624.864C822.185 625.021 819.117 626.058 816.036 625.997C821.803 607.761 818.424 590.173 813.776 572.138C814.143 568.122 815.791 564.093 816.978 560.246C819.87 550.875 824.046 537.633 822.531 527.792C822.502 524.153 823.234 520.238 823.582 516.594C824.1 511.179 824.366 505.805 824.484 500.367Z"/>
	<path fill="#044A5D" transform="matrix(1.18066 0 0 1.18066 0.000244141 0)" d="M846.536 574.664C853.776 572.003 860.394 571.869 867.989 572.615Q868.964 572.875 869.924 573.183Q870.885 573.491 871.83 573.845Q872.774 574.199 873.701 574.598Q874.627 574.998 875.533 575.442Q876.438 575.887 877.321 576.374Q878.204 576.862 879.062 577.393Q879.921 577.923 880.752 578.494Q881.583 579.066 882.386 579.677Q883.188 580.288 883.96 580.938Q884.732 581.587 885.471 582.274Q886.211 582.96 886.915 583.682Q887.62 584.403 888.289 585.158Q888.958 585.913 889.59 586.7Q890.221 587.487 890.814 588.303Q891.406 589.12 891.958 589.964Q892.51 590.809 893.02 591.679Q893.482 592.477 893.904 593.297Q894.325 594.117 894.706 594.957Q895.087 595.797 895.425 596.654Q895.764 597.512 896.059 598.385Q896.355 599.259 896.607 600.146Q896.859 601.032 897.067 601.931Q897.275 602.829 897.438 603.737Q897.601 604.644 897.719 605.559Q897.836 606.473 897.909 607.392Q897.981 608.312 898.008 609.233Q898.035 610.155 898.016 611.077Q897.997 611.999 897.932 612.918Q897.868 613.838 897.758 614.754Q897.648 615.669 897.493 616.578Q897.338 617.487 897.138 618.387Q896.937 619.287 896.693 620.176Q896.16 622.046 895.568 623.898C891.896 633.793 885.893 641.643 876.061 646.061C869.799 648.875 863.155 649.519 856.373 649.447C854.383 653.726 852.205 658.426 849.38 662.212C842.221 659.915 834.84 657.56 828.334 653.706L828.028 654.09C820.799 651.909 814.181 648.751 807.561 645.18C810.724 638.878 813.793 632.703 816.036 625.997C819.117 626.058 822.185 625.021 825.306 624.864C822.256 614.443 822.373 604.131 826.707 594.066C830.601 585.025 837.331 578.27 846.536 574.664Z"/>
	<path fill="#C8C9CC" transform="matrix(1.18066 0 0 1.18066 0.000244141 0)" d="M847.929 580.941Q848.976 581.109 850.013 581.328C852.681 581.903 854.865 583.219 856.295 585.608C857.302 587.289 857.601 589.189 856.98 591.066C855.999 594.035 853.36 595.351 850.707 596.569C849.757 596.582 848.833 596.606 847.898 596.41C845.513 595.908 842.929 594.586 841.679 592.412C840.684 590.681 840.654 588.793 841.282 586.928C842.382 583.664 845.002 582.334 847.929 580.941Z"/>
	<path fill="#1F98A5" transform="matrix(1.18066 0 0 1.18066 0.000244141 0)" d="M834.777 639.791C841.585 644.659 848.057 648.015 856.373 649.447C854.383 653.726 852.205 658.426 849.38 662.212C842.221 659.915 834.84 657.56 828.334 653.706C830.756 649.247 832.644 644.402 834.777 639.791Z"/>
	<path fill="#C8C9CC" transform="matrix(1.18066 0 0 1.18066 0.000244141 0)" d="M825.306 624.864C827.78 630.366 830.558 635.415 834.777 639.791C832.644 644.402 830.756 649.247 828.334 653.706L828.028 654.09C820.799 651.909 814.181 648.751 807.561 645.18C810.724 638.878 813.793 632.703 816.036 625.997C819.117 626.058 822.185 625.021 825.306 624.864Z"/>
	<path fill="#64CFD1" transform="matrix(1.18066 0 0 1.18066 0.000244141 0)" d="M194.383 465.422C195.748 468.893 195.378 473.878 195.872 477.663C196.69 483.943 198.61 490.393 199.115 496.634C200.73 500.94 203.083 510.666 204.976 513.919L205.242 515.343C200.524 528.993 200.701 545.084 201.112 559.379C201.189 562.064 200.832 566.041 201.903 568.406Q203.009 578.848 204.759 589.201C208.104 604.164 212.418 618.296 219.473 631.985C222.517 637.891 226.564 643.581 229.186 649.635C218.43 642.143 209.448 639.528 196.39 640.723C189.307 643.045 183.588 646.158 177.75 650.799C166.348 632.625 158.53 608.842 156.16 587.597C151.172 542.885 166.563 500.046 194.383 465.422Z"/>
	<path fill="#FBF7DF" transform="matrix(1.18066 0 0 1.18066 0.000244141 0)" d="M199.115 496.634C200.73 500.94 203.083 510.666 204.976 513.919L205.242 515.343C200.524 528.993 200.701 545.084 201.112 559.379C201.189 562.064 200.832 566.041 201.903 568.406Q203.009 578.848 204.759 589.201C208.104 604.164 212.418 618.296 219.473 631.985C222.517 637.891 226.564 643.581 229.186 649.635C218.43 642.143 209.448 639.528 196.39 640.723C190.902 632.528 187.616 623.539 184.996 614.071C173.809 573.636 178.268 533.141 199.115 496.634Z"/>
	<path fill="#044A5D" transform="matrix(1.18066 0 0 1.18066 0.000244141 0)" d="M796.456 782.122C796.671 776.697 796.87 771.119 798.399 765.875Q798.637 765.036 798.917 764.21Q799.196 763.384 799.517 762.572Q799.837 761.761 800.198 760.967Q800.558 760.173 800.958 759.398Q801.358 758.622 801.796 757.868Q802.234 757.114 802.709 756.382Q803.184 755.651 803.695 754.944Q804.206 754.237 804.752 753.557Q805.297 752.876 805.876 752.224Q806.455 751.572 807.066 750.949Q807.677 750.326 808.318 749.735Q808.959 749.144 809.629 748.585Q810.299 748.026 810.996 747.502Q811.693 746.977 812.415 746.488Q813.137 745.999 813.883 745.547Q814.629 745.095 815.396 744.68C826.552 738.624 838.09 740.123 849.778 743.643C859.1 749.18 863.855 755.084 868.387 764.856C872.145 778.26 870.661 788.345 864.841 800.872C856.419 810.292 847.882 816.913 834.791 817.729C824.882 818.346 817.146 815.459 809.045 809.967C807.307 810.677 805.471 811.617 803.66 812.082C803.657 819.061 802.606 824.36 800.271 830.885L798.103 835.436C796.392 837.98 794.56 840.426 792.45 842.656C785.251 850.263 774.855 855.206 764.321 855.364Q763.406 855.377 762.491 855.344Q761.576 855.311 760.664 855.233Q759.752 855.155 758.845 855.031Q757.938 854.908 757.038 854.74Q756.138 854.573 755.247 854.36Q754.357 854.148 753.478 853.892Q752.599 853.636 751.734 853.336Q750.869 853.037 750.02 852.695Q749.171 852.353 748.339 851.97Q747.508 851.586 746.697 851.162Q745.886 850.738 745.096 850.274Q744.307 849.81 743.542 849.308Q742.777 848.806 742.037 848.266Q741.298 847.727 740.586 847.151Q739.874 846.575 739.192 845.965Q738.509 845.355 737.858 844.712C730.961 837.871 725.88 827.052 725.855 817.272C726.747 807.187 729.058 798.76 735.662 790.833C742.506 782.617 753.037 777.74 763.616 776.864C775.69 775.864 783.392 779.947 792.402 787.486C793.289 784.785 794.089 783.723 796.456 782.122Z"/>
	<path fill="#FBF7DF" transform="matrix(1.18066 0 0 1.18066 0.000244141 0)" d="M802.493 803.826L809.045 809.967C807.307 810.677 805.471 811.617 803.66 812.082C803.536 809.325 802.935 806.549 802.493 803.826Z"/>
	<path fill="#64CFD1" transform="matrix(1.18066 0 0 1.18066 0.000244141 0)" d="M792.402 787.486C793.289 784.785 794.089 783.723 796.456 782.122C796.486 786.347 797.313 790.44 798.101 794.577Q795.204 791.069 792.402 787.486Z"/>
	<path fill="#C8C9CC" transform="matrix(1.18066 0 0 1.18066 0.000244141 0)" d="M823.831 749.566C825.687 749.391 827.508 749.694 829.349 749.918C830.931 751.044 832.557 752.221 833.547 753.932C834.511 755.6 834.95 757.535 834.396 759.42C833.587 762.174 831.462 763.474 829.101 764.807C827.615 764.965 825.988 765.227 824.511 764.912C822.343 764.449 820.269 762.95 819.14 761.048Q818.942 760.712 818.781 760.357Q818.619 760.001 818.496 759.631Q818.373 759.261 818.289 758.88Q818.205 758.499 818.162 758.111Q818.119 757.723 818.117 757.333Q818.116 756.943 818.155 756.555Q818.194 756.166 818.274 755.784Q818.354 755.402 818.473 755.031C819.391 752.181 821.258 750.85 823.831 749.566Z"/>
	<path fill="#64CFD1" transform="matrix(1.18066 0 0 1.18066 0.000244141 0)" d="M745.598 792.509C747.344 792.443 749.169 792.372 750.88 792.794C753.107 793.342 755.24 794.53 756.35 796.608C758.056 799.802 757.265 802.656 756.222 805.878C754.543 807.705 752.828 809.171 750.87 810.677C749.46 810.908 748.147 810.951 746.721 810.797C744.388 810.547 742.164 809.45 740.746 807.541C739.244 805.52 738.901 802.89 739.421 800.47C740.235 796.683 742.493 794.59 745.598 792.509Z"/>
	<path fill="#64CFD1" transform="matrix(1.18066 0 0 1.18066 0.000244141 0)" d="M196.39 640.723C209.448 639.528 218.43 642.143 229.186 649.635C233.72 655.026 237.816 660.993 239.948 667.79C262.554 694.121 289.386 713.164 320.669 727.988C330.317 732.56 340.392 736.98 350.596 740.162C425.076 767.935 526.087 775.102 603.904 759.735C677.316 745.238 764.426 709.484 807.561 645.18C814.181 648.751 820.799 651.909 828.028 654.09L828.334 653.706C834.84 657.56 842.221 659.915 849.38 662.212C843.187 671.627 836.767 680.855 829.21 689.243C780.946 742.816 701.196 778.461 631.64 792.879C518.186 816.395 384.809 803.02 281.481 749.765C270.692 744.204 259.742 738.713 249.578 732.053C244.413 728.668 239.475 724.908 234.51 721.239C219.518 726.347 202.547 728.655 187.83 721.312C180.353 717.582 173.891 711.552 171.334 703.406C170.111 699.508 169.895 695.456 170 691.398C168.622 686.51 167.427 681.833 167.331 676.73C167.141 666.639 170.854 658.034 177.75 650.799C183.588 646.158 189.307 643.045 196.39 640.723Z"/>
	<path fill="#044A5D" transform="matrix(1.18066 0 0 1.18066 0.000244141 0)" d="M196.39 640.723C209.448 639.528 218.43 642.143 229.186 649.635C233.72 655.026 237.816 660.993 239.948 667.79C241.077 677.42 240.517 686.271 236.725 695.278C233.5 700.731 229.489 705.256 224.043 708.558C215.528 713.722 204.905 715.586 195.217 713.139C183.317 710.133 176.093 701.49 170 691.398C168.622 686.51 167.427 681.833 167.331 676.73C167.141 666.639 170.854 658.034 177.75 650.799C183.588 646.158 189.307 643.045 196.39 640.723Z"/>
	<path fill="#C8C9CC" transform="matrix(1.18066 0 0 1.18066 0.000244141 0)" d="M185.634 653.511C186.838 653.471 188.172 653.362 189.351 653.637C191.045 654.032 192.926 655.324 193.809 656.83C194.958 658.79 194.888 661.235 194.251 663.349C193.069 667.277 190.698 669.032 187.296 670.977C186.213 671.023 185.129 671.055 184.057 670.864C182.066 670.509 180.279 669.722 179.193 667.935C178.134 666.192 178.151 663.999 178.646 662.079C179.72 657.91 182.111 655.726 185.634 653.511Z"/>
	<path fill="#FBF7DF" transform="matrix(1.18066 0 0 1.18066 0.000244141 0)" d="M807.561 645.18C814.181 648.751 820.799 651.909 828.028 654.09C823.688 664.082 816.071 672.451 808.874 680.493C777.785 715.229 745.05 734.78 701.831 751.831C581.424 799.336 437.188 798.604 318.193 746.934C294.415 736.609 253.817 714.043 236.725 695.278C240.517 686.271 241.077 677.42 239.948 667.79C262.554 694.121 289.386 713.164 320.669 727.988C330.317 732.56 340.392 736.98 350.596 740.162C425.076 767.935 526.087 775.102 603.904 759.735C677.316 745.238 764.426 709.484 807.561 645.18Z"/>
	<path fill="#931D2D" transform="matrix(1.18066 0 0 1.18066 0.000244141 0)" d="M204.54 375.168C207.428 382.843 210.351 390.379 214.339 397.572C236.218 437.035 276.233 466.202 316.709 484.506C337.165 493.756 357.997 500.46 379.701 506.021C388.73 508.334 397.702 510.709 407.002 511.65Q411.827 512.819 416.687 513.832C421.529 521.977 425.466 530.695 429.597 539.216L429.844 539.905C433.982 544.081 436.935 550.511 440.092 555.487C445.238 563.6 452.38 573.085 462.403 575.094C479.881 578.598 491.436 556.994 499.549 545.093C500.873 543.15 502.726 539.714 504.658 538.529C504.886 538.39 505.122 538.266 505.354 538.134C509.186 532.715 512.317 526.634 515.628 520.881L521.427 521.13C526.899 520.261 534.299 520.142 539.084 517.321L542.492 516.147C552.956 514.311 563.599 513.336 574.092 511.53Q593.333 508.241 612.257 503.457Q631.182 498.674 649.674 492.425C651.439 491.881 653.169 491.199 654.902 490.562C656.824 492.891 658.24 495.797 660.174 498C663.898 500.281 666.859 504.718 669.858 507.913C673.844 512.16 678.456 514.861 684.415 514.896C710.461 515.05 705.398 488.422 711.864 482.814C712.035 482.666 712.22 482.536 712.398 482.397L712.379 486.55C736.362 471.34 755.181 450.81 771.815 428.072C776.471 420.616 781.191 413.281 784.418 405.063C784.661 400.351 787.561 385.848 789.991 382.056C792.65 391.271 795.158 400.877 796.261 410.414C796.948 416.362 795.878 423.978 797.621 429.551C799.806 432.989 802.278 436.144 804.805 439.335C811.63 452.842 818.619 466.362 821.826 481.283C823.176 487.564 823.105 494.124 824.484 500.367C824.366 505.805 824.1 511.179 823.582 516.594C823.234 520.238 822.502 524.153 822.531 527.792C824.046 537.633 819.87 550.875 816.978 560.246C815.791 564.093 814.143 568.122 813.776 572.138C818.424 590.173 821.803 607.761 816.036 625.997C813.793 632.703 810.724 638.878 807.561 645.18C764.426 709.484 677.316 745.238 603.904 759.735C526.087 775.102 425.076 767.935 350.596 740.162C340.392 736.98 330.317 732.56 320.669 727.988C289.386 713.164 262.554 694.121 239.948 667.79C237.816 660.993 233.72 655.026 229.186 649.635C226.564 643.581 222.517 637.891 219.473 631.985C212.418 618.296 208.104 604.164 204.759 589.201Q203.009 578.848 201.903 568.406C200.832 566.041 201.189 562.064 201.112 559.379C200.701 545.084 200.524 528.993 205.242 515.343L204.976 513.919C203.083 510.666 200.73 500.94 199.115 496.634C198.61 490.393 196.69 483.943 195.872 477.663C195.378 473.878 195.748 468.893 194.383 465.422C194.951 457.583 196.527 449.74 197.326 441.9C198.214 431.254 199.036 419.555 203.376 409.681C203.177 403.321 199.393 390.053 196.9 384.118C199.939 381.594 202.255 378.358 204.54 375.168Z"/>
	<path fill="#F46338" transform="matrix(1.18066 0 0 1.18066 0.000244141 0)" d="M204.976 513.919C206.899 514.283 207.811 515.297 208.872 516.865C210.367 519.073 211.428 521.646 212.539 524.063C212.177 526.153 212.188 527.912 212.84 529.953C214.618 535.515 222.638 546.185 226.196 551.25C233.723 561.965 242.077 572.416 251.724 581.31C277.885 605.431 315.484 622.24 345.235 642.748L342.381 642.349C343.92 644.644 348.812 647.128 351.161 648.802C359.485 654.736 368.854 661.081 375.023 669.348C367.522 670.053 360.091 670.627 352.562 670.938C348.1 671.122 342.82 670.7 338.483 671.614C337.159 671.343 335.918 670.923 334.64 670.485C325.071 667.205 316.19 662.273 307.247 657.6C268.654 637.432 235.72 610.623 220.748 568.246C214.793 551.392 213.643 531.978 205.672 516.177L205.242 515.343L204.976 513.919Z"/>
	<path fill="#F6B260" transform="matrix(1.18066 0 0 1.18066 0.000244141 0)" d="M784.418 405.063C784.661 400.351 787.561 385.848 789.991 382.056C792.65 391.271 795.158 400.877 796.261 410.414C796.948 416.362 795.878 423.978 797.621 429.551C797.541 429.759 797.457 429.965 797.382 430.174C795.885 434.36 796.505 446.028 796.003 451.32Q794.972 461.209 792.619 470.869C778.903 527.422 737.646 563.737 687.715 589.526Q683.812 591.497 679.871 593.391Q675.931 595.284 671.953 597.1Q667.976 598.917 663.964 600.654Q659.952 602.392 655.907 604.05Q651.861 605.709 647.784 607.287Q643.707 608.866 639.599 610.365Q635.492 611.863 631.356 613.281Q627.22 614.698 623.057 616.034Q618.894 617.37 614.705 618.624Q610.517 619.878 606.305 621.05Q602.092 622.221 597.858 623.31Q593.623 624.398 589.368 625.404Q585.113 626.409 580.839 627.33Q576.565 628.252 572.274 629.089Q567.983 629.927 563.676 630.68Q559.369 631.433 555.048 632.101Q550.727 632.769 546.394 633.353Q542.061 633.936 537.717 634.434Q533.374 634.932 529.021 635.345Q524.668 635.758 520.308 636.085Q515.948 636.413 511.583 636.654Q507.217 636.896 502.848 637.052Q498.479 637.208 494.107 637.278Q489.735 637.348 485.363 637.332Q480.991 637.316 476.62 637.214Q472.249 637.113 467.881 636.925Q463.513 636.738 459.149 636.465Q454.785 636.191 450.428 635.833Q446.071 635.474 441.721 635.029Q437.371 634.585 433.031 634.056Q428.691 633.526 424.363 632.911Q420.034 632.297 415.718 631.597C393.575 628.192 372.474 622.811 350.84 617.247C351.951 605.388 352.429 602.373 345.981 591.713C383.261 601.966 424.671 612.208 463.598 611.525C482.531 613.104 500.801 612.587 519.747 611.336C572.448 607.855 625.566 597.301 673.545 574.646C715.349 554.907 765.908 521.863 782.033 476.336C788.837 457.126 793.523 424.137 784.418 405.063Z"/>
	<defs>
		<linearGradient id="gradient_0" gradientUnits="userSpaceOnUse" x1="748.97443" y1="557.79852" x2="502.67154" y2="461.43237">
			<stop offset="0" stop-color="#A12220"/>
			<stop offset="1" stop-color="#D43B1E"/>
		</linearGradient>
	</defs>
	<path fill="url(#gradient_0)" transform="matrix(1.18066 0 0 1.18066 0.000244141 0)" d="M784.418 405.063C793.523 424.137 788.837 457.126 782.033 476.336C765.908 521.863 715.349 554.907 673.545 574.646C625.566 597.301 572.448 607.855 519.747 611.336C500.801 612.587 482.531 613.104 463.598 611.525C456.947 606.434 451.899 600.47 450.145 592.074C460.117 596.402 467.557 602.893 478.991 603.558C502.635 604.933 523.883 588.724 545.5 581.506C553.005 579 560.909 578.118 568.532 576.07C596.908 568.446 646.974 554.343 668.561 535.306C673.24 538.678 678.592 541.637 684.54 541.411C688.803 541.25 694.343 539.628 697.405 536.518C703.412 530.419 703.252 520.624 708.544 513.828C712.303 509 717.471 504.73 721.979 500.589C729.777 493.426 737.649 486.34 744.717 478.437C755.378 466.515 772.725 444.538 771.815 428.072C776.471 420.616 781.191 413.281 784.418 405.063Z"/>
	<path fill="#F46338" transform="matrix(1.18066 0 0 1.18066 0.000244141 0)" d="M203.376 409.681L203.732 410.185C203.954 413.202 205.139 416.298 206.009 419.195C210.076 432.744 213.608 437.551 220.747 449.304C224.841 456.044 228.517 463.013 232.865 469.605C241.581 482.821 252.641 494.41 264.587 504.723C297.442 533.089 337.404 554.21 377.731 569.788C388.751 574.045 399.944 578.13 411.322 581.324C416.614 582.81 447.826 590.085 450.145 592.074C451.899 600.47 456.947 606.434 463.598 611.525C424.671 612.208 383.261 601.966 345.981 591.713C352.429 602.373 351.951 605.388 350.84 617.247C302.209 603.774 238.425 568.446 212.539 524.063C211.428 521.646 210.367 519.073 208.872 516.865C207.811 515.297 206.899 514.283 204.976 513.919C203.083 510.666 200.73 500.94 199.115 496.634C198.61 490.393 196.69 483.943 195.872 477.663C195.378 473.878 195.748 468.893 194.383 465.422C194.951 457.583 196.527 449.74 197.326 441.9C198.214 431.254 199.036 419.555 203.376 409.681Z"/>
	<path fill="#F0C894" transform="matrix(1.18066 0 0 1.18066 0.000244141 0)" d="M194.383 465.422C194.951 457.583 196.527 449.74 197.326 441.9C198.435 451.375 199.51 460.796 202.014 470.03C210.169 500.102 230.904 524.64 254.946 543.664C276.842 560.99 301.365 572.56 326.739 583.857C333.009 586.648 339.883 588.664 345.981 591.713C352.429 602.373 351.951 605.388 350.84 617.247C302.209 603.774 238.425 568.446 212.539 524.063C211.428 521.646 210.367 519.073 208.872 516.865C207.811 515.297 206.899 514.283 204.976 513.919C203.083 510.666 200.73 500.94 199.115 496.634C198.61 490.393 196.69 483.943 195.872 477.663C195.378 473.878 195.748 468.893 194.383 465.422Z"/>
	<defs>
		<linearGradient id="gradient_1" gradientUnits="userSpaceOnUse" x1="709.43896" y1="398.01093" x2="314.06296" y2="721.17633">
			<stop offset="0" stop-color="#F3A147"/>
			<stop offset="1" stop-color="#FFE1A6"/>
		</linearGradient>
	</defs>
	<path fill="url(#gradient_1)" transform="matrix(1.18066 0 0 1.18066 0.000244141 0)" d="M205.242 515.343L205.672 516.177C213.643 531.978 214.793 551.392 220.748 568.246C235.72 610.623 268.654 637.432 307.247 657.6C316.19 662.273 325.071 667.205 334.64 670.485C335.918 670.923 337.159 671.343 338.483 671.614C348.168 675.73 358.331 679.125 368.35 682.334C479.584 717.958 606.647 712.806 711.13 658.687C748.657 639.249 779.512 614.308 801.458 577.843C804.71 572.441 808.072 567.057 810.712 561.321C815.704 550.474 818.908 539.132 822.531 527.792C824.046 537.633 819.87 550.875 816.978 560.246C815.791 564.093 814.143 568.122 813.776 572.138L813.006 572.696C807.439 583.926 803.795 595.363 797.104 606.178C765.299 657.589 708.476 689.009 652.61 707.87C626.393 716.721 599.082 722.021 571.678 725.465C498.565 734.654 434.426 729.269 364.12 706.791C345.564 700.859 327.149 694.194 309.672 685.529C276.669 669.167 244.332 642.167 223.987 611.306C217.061 600.8 211.586 589.646 206.594 578.12C206.58 578.037 206.575 577.953 206.552 577.872C205.737 574.956 204.465 570.164 201.903 568.406C200.832 566.041 201.189 562.064 201.112 559.379C200.701 545.084 200.524 528.993 205.242 515.343Z"/>
	<path fill="#931D2D" transform="matrix(1.18066 0 0 1.18066 0.000244141 0)" d="M201.903 568.406C204.465 570.164 205.737 574.956 206.552 577.872C206.575 577.953 206.58 578.037 206.594 578.12C211.586 589.646 217.061 600.8 223.987 611.306C244.332 642.167 276.669 669.167 309.672 685.529C327.149 694.194 345.564 700.859 364.12 706.791C434.426 729.269 498.565 734.654 571.678 725.465C599.082 722.021 626.393 716.721 652.61 707.87C708.476 689.009 765.299 657.589 797.104 606.178C803.795 595.363 807.439 583.926 813.006 572.696L813.776 572.138C818.424 590.173 821.803 607.761 816.036 625.997C813.793 632.703 810.724 638.878 807.561 645.18C764.426 709.484 677.316 745.238 603.904 759.735C526.087 775.102 425.076 767.935 350.596 740.162C340.392 736.98 330.317 732.56 320.669 727.988C289.386 713.164 262.554 694.121 239.948 667.79C237.816 660.993 233.72 655.026 229.186 649.635C226.564 643.581 222.517 637.891 219.473 631.985C212.418 618.296 208.104 604.164 204.759 589.201Q203.009 578.848 201.903 568.406Z"/>
	<path fill="#F46338" transform="matrix(1.18066 0 0 1.18066 0.000244141 0)" d="M201.903 568.406C204.465 570.164 205.737 574.956 206.552 577.872C206.575 577.953 206.58 578.037 206.594 578.12C205.396 580.93 205.91 583.54 206.334 586.472C223.131 638.656 267.751 683.048 315.851 707.656C324.925 712.299 334.524 716.098 344.097 719.574C346.241 726.435 348.563 733.27 350.596 740.162C340.392 736.98 330.317 732.56 320.669 727.988C289.386 713.164 262.554 694.121 239.948 667.79C237.816 660.993 233.72 655.026 229.186 649.635C226.564 643.581 222.517 637.891 219.473 631.985C212.418 618.296 208.104 604.164 204.759 589.201Q203.009 578.848 201.903 568.406Z"/>
	<path fill="#931D2D" transform="matrix(1.18066 0 0 1.18066 0.000244141 0)" d="M204.54 375.168C207.428 382.843 210.351 390.379 214.339 397.572C236.218 437.035 276.233 466.202 316.709 484.506C337.165 493.756 357.997 500.46 379.701 506.021C388.73 508.334 397.702 510.709 407.002 511.65Q411.827 512.819 416.687 513.832C421.529 521.977 425.466 530.695 429.597 539.216L429.844 539.905C433.982 544.081 436.935 550.511 440.092 555.487C445.238 563.6 452.38 573.085 462.403 575.094C479.881 578.598 491.436 556.994 499.549 545.093C500.873 543.15 502.726 539.714 504.658 538.529C504.886 538.39 505.122 538.266 505.354 538.134C509.186 532.715 512.317 526.634 515.628 520.881L521.427 521.13C526.899 520.261 534.299 520.142 539.084 517.321L542.492 516.147C552.956 514.311 563.599 513.336 574.092 511.53Q593.333 508.241 612.257 503.457Q631.182 498.674 649.674 492.425C651.439 491.881 653.169 491.199 654.902 490.562C656.824 492.891 658.24 495.797 660.174 498C663.898 500.281 666.859 504.718 669.858 507.913C673.844 512.16 678.456 514.861 684.415 514.896C710.461 515.05 705.398 488.422 711.864 482.814C712.035 482.666 712.22 482.536 712.398 482.397L712.379 486.55C736.362 471.34 755.181 450.81 771.815 428.072C772.725 444.538 755.378 466.515 744.717 478.437C737.649 486.34 729.777 493.426 721.979 500.589C717.471 504.73 712.303 509 708.544 513.828C703.252 520.624 703.412 530.419 697.405 536.518C694.343 539.628 688.803 541.25 684.54 541.411C678.592 541.637 673.24 538.678 668.561 535.306C646.974 554.343 596.908 568.446 568.532 576.07C560.909 578.118 553.005 579 545.5 581.506C523.883 588.724 502.635 604.933 478.991 603.558C467.557 602.893 460.117 596.402 450.145 592.074C447.826 590.085 416.614 582.81 411.322 581.324C399.944 578.13 388.751 574.045 377.731 569.788C337.404 554.21 297.442 533.089 264.587 504.723C252.641 494.41 241.581 482.821 232.865 469.605C228.517 463.013 224.841 456.044 220.747 449.304C213.608 437.551 210.076 432.744 206.009 419.195C205.139 416.298 203.954 413.202 203.732 410.185L203.376 409.681C203.177 403.321 199.393 390.053 196.9 384.118C199.939 381.594 202.255 378.358 204.54 375.168Z"/>
	<path fill="#1F98A5" transform="matrix(1.18066 0 0 1.18066 0.000244141 0)" d="M660.174 498C663.898 500.281 666.859 504.718 669.858 507.913C673.844 512.16 678.456 514.861 684.415 514.896C710.461 515.05 705.398 488.422 711.864 482.814C712.035 482.666 712.22 482.536 712.398 482.397L712.379 486.55C709.838 499.171 708.909 513.431 697.261 521.441C692.5 524.715 686.799 525.987 681.127 524.768C674.982 523.447 669.129 519.338 665.748 514.043C664.648 512.319 663.878 510.465 663.139 508.566C662.301 504.981 661.307 501.504 660.174 498Z"/>
	<path fill="#1F98A5" transform="matrix(1.18066 0 0 1.18066 0.000244141 0)" d="M505.354 538.134L503.78 541.973C503.491 543.748 502.435 545.614 501.675 547.248C495.056 561.478 486.455 576.941 470.732 582.489C465.031 584.5 458.898 584.561 453.437 581.789C440.882 575.418 434.149 552.698 429.844 539.905C433.982 544.081 436.935 550.511 440.092 555.487C445.238 563.6 452.38 573.085 462.403 575.094C479.881 578.598 491.436 556.994 499.549 545.093C500.873 543.15 502.726 539.714 504.658 538.529C504.886 538.39 505.122 538.266 505.354 538.134Z"/>
	<path fill="#F0C894" transform="matrix(1.18066 0 0 1.18066 0.000244141 0)" d="M649.674 492.425C651.439 491.881 653.169 491.199 654.902 490.562C656.824 492.891 658.24 495.797 660.174 498C661.307 501.504 662.301 504.981 663.139 508.566C616.027 530.048 563.367 537.666 512.085 541.619C509.293 541.864 506.587 542.022 503.78 541.973L505.354 538.134C509.186 532.715 512.317 526.634 515.628 520.881L521.427 521.13C526.899 520.261 534.299 520.142 539.084 517.321L542.492 516.147C552.956 514.311 563.599 513.336 574.092 511.53Q593.333 508.241 612.257 503.457Q631.182 498.674 649.674 492.425Z"/>
	<path fill="#F6B260" transform="matrix(1.18066 0 0 1.18066 0.000244141 0)" d="M515.628 520.881L521.427 521.13C518.161 527.697 513.463 534.358 512.085 541.619C509.293 541.864 506.587 542.022 503.78 541.973L505.354 538.134C509.186 532.715 512.317 526.634 515.628 520.881Z"/>
	<path fill="#F0C894" transform="matrix(1.18066 0 0 1.18066 0.000244141 0)" d="M204.54 375.168C207.428 382.843 210.351 390.379 214.339 397.572C236.218 437.035 276.233 466.202 316.709 484.506C337.165 493.756 357.997 500.46 379.701 506.021C388.73 508.334 397.702 510.709 407.002 511.65Q411.827 512.819 416.687 513.832C421.529 521.977 425.466 530.695 429.597 539.216Q410.418 536.259 391.544 531.751C326.901 516.417 258.609 488.44 217.363 433.897C211.782 426.516 208.557 418.003 203.732 410.185L203.376 409.681C203.177 403.321 199.393 390.053 196.9 384.118C199.939 381.594 202.255 378.358 204.54 375.168Z"/>
	<path fill="#1F98A5" transform="matrix(1.18066 0 0 1.18066 0.000244141 0)" d="M425.026 171.789C435.16 167.141 444.627 161.283 454.632 156.398C475.589 146.167 496.905 143.922 518.959 152.198C527.585 155.435 535.882 159.513 544.43 162.943C552.324 166.11 560.431 168.533 568.571 170.964C572.606 172.169 576.868 173.789 581.002 174.532C595.695 175.134 611.413 179.469 625.607 183.176C675.024 196.082 721.243 214.186 756.681 252.581C773.413 270.709 787.205 295.126 790.2 319.926C791.467 330.422 790.992 341.387 791.014 351.961C791.126 356.203 790.908 361 791.993 365.099C791.286 370.599 790.091 376.533 789.991 382.056C787.561 385.848 784.661 400.351 784.418 405.063C781.191 413.281 776.471 420.616 771.815 428.072C755.181 450.81 736.362 471.34 712.379 486.55L712.398 482.397C712.22 482.536 712.035 482.666 711.864 482.814C705.398 488.422 710.461 515.05 684.415 514.896C678.456 514.861 673.844 512.16 669.858 507.913C666.859 504.718 663.898 500.281 660.174 498C658.24 495.797 656.824 492.891 654.902 490.562C653.169 491.199 651.439 491.881 649.674 492.425Q631.182 498.674 612.257 503.457Q593.333 508.241 574.092 511.53C563.599 513.336 552.956 514.311 542.492 516.147L539.084 517.321C534.299 520.142 526.899 520.261 521.427 521.13L515.628 520.881C512.317 526.634 509.186 532.715 505.354 538.134C505.122 538.266 504.886 538.39 504.658 538.529C502.726 539.714 500.873 543.15 499.549 545.093C491.436 556.994 479.881 578.598 462.403 575.094C452.38 573.085 445.238 563.6 440.092 555.487C436.935 550.511 433.982 544.081 429.844 539.905L429.597 539.216C425.466 530.695 421.529 521.977 416.687 513.832Q411.827 512.819 407.002 511.65C403.358 507.457 388.827 492.277 388.513 488.209C382.783 481.863 375.552 476.508 368.829 471.245C345.919 452.007 327.227 433.602 307.551 411.053Q304.763 407.336 302.108 403.523C281.082 373.569 270.127 345.37 276.645 308.3C277.404 301.958 278.493 295.663 279.524 289.361C282.02 279.058 286.641 270.16 291.874 261.041C313.52 225.761 354.647 201.931 391.709 185.799C401.12 181.703 417.187 177.248 425.026 171.789Z"/>
	<path fill="#044A5D" transform="matrix(1.18066 0 0 1.18066 0.000244141 0)" d="M657.104 292.663C663.166 291.808 670.109 294.183 675.084 297.568Q675.725 298.01 676.344 298.484Q676.962 298.958 677.556 299.462Q678.15 299.966 678.718 300.499Q679.286 301.032 679.827 301.593Q680.368 302.153 680.88 302.741Q681.392 303.328 681.874 303.94Q682.356 304.552 682.807 305.187Q683.257 305.822 683.676 306.479Q684.095 307.136 684.48 307.813Q684.865 308.49 685.216 309.186Q685.567 309.881 685.882 310.593Q686.198 311.306 686.478 312.033Q686.758 312.76 687.001 313.5Q687.244 314.24 687.45 314.991Q687.655 315.743 687.823 316.503Q687.991 317.264 688.121 318.032C689.331 324.882 688.091 332.104 684.031 337.837C679.114 344.78 672.57 347.213 664.559 348.555C657.161 348.413 650.305 346.784 644.111 342.604C638.169 338.594 633.485 332.444 632.28 325.27C631.082 318.133 632.449 309.465 636.738 303.576C641.591 296.912 649.241 293.843 657.104 292.663Z"/>
	<path fill="#C8C9CC" transform="matrix(1.18066 0 0 1.18066 0.000244141 0)" d="M648.417 301.52C649.706 301.634 651.036 301.725 652.307 301.97Q652.557 302.019 652.8 302.094Q653.043 302.17 653.276 302.271Q653.51 302.372 653.731 302.498Q653.952 302.623 654.158 302.772Q654.365 302.921 654.554 303.091Q654.743 303.262 654.913 303.451Q655.082 303.641 655.231 303.848Q655.379 304.054 655.504 304.276C656.16 305.45 656.145 306.594 655.676 307.817C654.707 310.341 651.833 311.856 649.539 312.899C648.065 313.005 646.757 313.031 645.31 312.671C643.858 312.309 642.432 311.492 641.814 310.058C641.291 308.846 641.438 307.505 641.953 306.324C643.213 303.436 645.618 302.505 648.417 301.52Z"/>
	<path fill="#044A5D" transform="matrix(1.18066 0 0 1.18066 0.000244141 0)" d="M321.43 288.313C330.228 284.932 339.453 282.643 348.544 286.582C354.27 289.063 357.979 293.167 361.606 298.028C364.055 304.598 365.722 311.215 364.623 318.263C363.495 325.498 359.722 332.318 353.638 336.544C347.202 341.015 338.536 342.492 330.884 341.036C323.545 339.64 316.81 335.481 312.65 329.209C307.964 322.145 307.367 313.605 309.076 305.497C310.681 297.881 315.028 292.447 321.43 288.313Z"/>
	<path fill="#C8C9CC" transform="matrix(1.18066 0 0 1.18066 0.000244141 0)" d="M327.161 291.674C329.13 291.655 331.262 291.932 332.987 292.947C334.402 293.78 335.256 294.974 335.543 296.607C335.879 298.523 334.867 300.671 333.736 302.147C331.356 305.254 328.469 306.235 324.735 306.804L324.268 306.751L323.49 306.651C322.07 306.48 320.62 306.395 319.318 305.747C317.771 304.978 316.468 303.645 316.09 301.914C315.738 300.303 316.349 298.558 317.234 297.219C319.686 293.51 323.064 292.498 327.161 291.674Z"/>
	<path fill="#044A5D" transform="matrix(1.18066 0 0 1.18066 0.000244141 0)" d="M610.661 251.031C616.227 255.776 622.059 261.144 622.685 268.947C623.159 274.855 620.281 280.309 616.409 284.573C603.298 299.013 579.066 306.558 560.114 307.359C555.404 307.558 550.753 307.362 546.057 306.985C549.582 311.098 552.245 315.247 551.747 320.944C551.222 326.948 547.156 331.757 542.636 335.393C527.107 347.887 501.62 352.252 482.258 349.941C466.621 348.074 449.072 341.041 439.211 328.222C435.54 323.451 433.914 317.729 434.793 311.748C435.088 309.739 435.612 307.651 436.26 305.731Q438.181 308.938 440.145 312.118C448.112 324.98 459.267 332.953 474.061 336.345C491.312 340.299 509.297 336.478 524.087 327.009C537.322 318.536 544.505 307.228 547.772 292.022C550.842 291.681 554.25 292.499 557.33 292.786C565.075 293.506 573.264 291.181 580.264 287.945C596.421 280.475 604.763 267.272 610.661 251.031Z"/>
	<path fill="#64CFD1" transform="matrix(1.18066 0 0 1.18066 0.000244141 0)" d="M321.43 288.313C318.861 280.619 318.488 270.342 319.729 262.361C322.196 246.502 331.836 231.294 347.832 226.723C356.013 224.385 364.287 223.874 372.078 220.034C382.403 214.945 389.933 205.641 399.179 198.975C406.98 193.351 416.851 189.554 426.164 187.347C453.589 180.847 502.595 181.47 530.565 185.898C517.148 192.271 506.121 200.412 500.868 214.862C499.805 217.785 499.031 220.847 498.384 223.887C476.942 221.473 454.918 222.751 437.408 236.839C433.986 239.592 430.662 242.711 427.893 246.129C419.099 256.987 404.986 280.41 403.542 294.098C402.21 306.73 407.273 318.874 415.214 328.498C436.407 354.188 487.729 372.928 518.87 383.25C531.315 387.375 545.012 390.025 556.278 396.979C560.492 399.581 563.795 402.911 563.226 408.232C562.677 413.362 559.499 418.296 555.436 421.365C549.873 425.566 543.148 426.792 536.711 428.995C531.246 429.108 525.556 430.11 520.114 430.706Q509.44 431.901 498.7 432.03C501.467 422.622 501.894 413.559 498.213 404.316C492.725 390.532 481.962 382.316 468.674 376.598C465.808 373.691 461.602 371.28 458.046 369.291C452.343 366.102 446.199 363.704 439.682 362.906C422.373 360.786 408.599 367.474 392.305 355.836C375.114 343.558 376.841 309.891 361.999 298.327C361.87 298.225 361.737 298.128 361.606 298.028C357.979 293.167 354.27 289.063 348.544 286.582C339.453 282.643 330.228 284.932 321.43 288.313Z"/>
	<path fill="#F46338" transform="matrix(1.18066 0 0 1.18066 0.000244141 0)" d="M530.565 185.898C538.085 183.753 545.26 181.942 553.093 183.08C561.012 182.859 568.107 182.881 575.105 187.131L580.961 189.278C591.652 192.369 600.488 199.913 605.871 209.57C612.912 222.204 613.677 237.154 610.661 251.031C604.763 267.272 596.421 280.475 580.264 287.945C573.264 291.181 565.075 293.506 557.33 292.786C554.25 292.499 550.842 291.681 547.772 292.022C544.505 307.228 537.322 318.536 524.087 327.009C509.297 336.478 491.312 340.299 474.061 336.345C459.267 332.953 448.112 324.98 440.145 312.118Q438.181 308.938 436.26 305.731C434.442 301.357 432.856 296.763 431.807 292.142Q431.516 290.908 431.286 289.661Q431.057 288.414 430.889 287.157Q430.722 285.9 430.617 284.636Q430.512 283.372 430.469 282.105Q430.427 280.838 430.448 279.57Q430.468 278.302 430.552 277.037Q430.635 275.771 430.781 274.512Q430.927 273.252 431.135 272.001Q431.344 270.75 431.614 269.511Q431.884 268.272 432.215 267.048Q432.546 265.824 432.938 264.618Q433.329 263.412 433.78 262.227Q434.23 261.042 434.739 259.88Q435.248 258.719 435.814 257.584Q436.38 256.449 437.001 255.344Q437.623 254.238 438.298 253.165C446.585 240.13 457.902 232.097 472.904 228.709C481.766 226.033 489.371 225.835 498.039 229.553L498.384 223.887C499.031 220.847 499.805 217.785 500.868 214.862C506.121 200.412 517.148 192.271 530.565 185.898Z"/>
	<path fill="#FBF7DF" transform="matrix(1.18066 0 0 1.18066 0.000244141 0)" d="M455.237 250.493C456.479 250.468 457.893 250.357 459.1 250.682C460.766 251.13 462.315 252.44 463.046 253.993C463.969 255.953 463.647 258.319 462.887 260.276C461.399 264.104 459.119 265.855 455.496 267.522C454.457 267.56 453.396 267.602 452.373 267.385C450.538 266.994 448.77 266.052 447.772 264.413C446.756 262.744 446.846 260.649 447.403 258.84C448.723 254.558 451.458 252.474 455.237 250.493Z"/>
	<path fill="#FBF7DF" transform="matrix(1.18066 0 0 1.18066 0.000244141 0)" d="M524.159 206.482C525.32 206.438 526.516 206.374 527.668 206.548C529.659 206.85 531.809 207.822 532.843 209.639C533.583 210.941 533.638 212.512 533.324 213.947C532.327 218.514 528.974 221.266 525.257 223.661C525.068 223.687 524.88 223.727 524.689 223.741C522.57 223.893 519.397 223.473 517.816 221.889C516.508 220.578 516.3 218.666 516.562 216.921C517.3 212.003 520.351 209.209 524.159 206.482Z"/>
	<path transform="matrix(1.18066 0 0 1.18066 0.000244141 0)" d="M553.093 183.08C561.012 182.859 568.107 182.881 575.105 187.131C575.719 189.073 575.996 191.068 576.328 193.072C575.594 194.824 574.708 196.516 573.865 198.217C569.65 200.816 565.368 201.364 560.485 200.58C556.054 199.868 550.702 197.772 548.153 193.842C547.271 192.482 546.827 190.929 547.206 189.309C547.918 186.267 550.576 184.542 553.093 183.08Z"/>
	<path transform="matrix(1.18066 0 0 1.18066 0.000244141 0)" d="M472.904 228.709C481.766 226.033 489.371 225.835 498.039 229.553C500.588 231.502 501.716 233.937 503.004 236.776C501.199 240.472 498.973 242.69 495.128 244.285C489.658 246.553 481.928 246.038 476.569 243.529C474.048 242.349 471.911 240.527 471.002 237.83C469.836 234.37 471.318 231.684 472.904 228.709Z"/>
	<path fill="#931D2D" transform="matrix(1.18066 0 0 1.18066 0.000244141 0)" d="M580.961 189.278C591.652 192.369 600.488 199.913 605.871 209.57C612.912 222.204 613.677 237.154 610.661 251.031C604.763 267.272 596.421 280.475 580.264 287.945C573.264 291.181 565.075 293.506 557.33 292.786C554.25 292.499 550.842 291.681 547.772 292.022C547.55 288.553 547.897 285.02 547.673 281.524C547.097 272.526 544.054 265.066 541.091 256.705C552.529 257.795 565.319 255.263 575.591 250.153C584.859 245.542 593.982 237.305 597.274 227.242C601.355 214.764 596.387 204.468 587.251 196.069C585.541 194.496 582.16 192.155 581.245 190.029C581.139 189.783 581.056 189.529 580.961 189.278Z"/>
	<path fill="#044A5D" transform="matrix(1.18066 0 0 1.18066 0.000244141 0)" d="M581.002 174.532C595.695 175.134 611.413 179.469 625.607 183.176C675.024 196.082 721.243 214.186 756.681 252.581C773.413 270.709 787.205 295.126 790.2 319.926C791.467 330.422 790.992 341.387 791.014 351.961C791.126 356.203 790.908 361 791.993 365.099C791.286 370.599 790.091 376.533 789.991 382.056C787.561 385.848 784.661 400.351 784.418 405.063C781.191 413.281 776.471 420.616 771.815 428.072C755.181 450.81 736.362 471.34 712.379 486.55L712.398 482.397C712.22 482.536 712.035 482.666 711.864 482.814C705.398 488.422 710.461 515.05 684.415 514.896C678.456 514.861 673.844 512.16 669.858 507.913C666.859 504.718 663.898 500.281 660.174 498C658.24 495.797 656.824 492.891 654.902 490.562C653.169 491.199 651.439 491.881 649.674 492.425Q631.182 498.674 612.257 503.457Q593.333 508.241 574.092 511.53C563.599 513.336 552.956 514.311 542.492 516.147L539.084 517.321C534.299 520.142 526.899 520.261 521.427 521.13L515.628 520.881C512.317 526.634 509.186 532.715 505.354 538.134C505.122 538.266 504.886 538.39 504.658 538.529C502.726 539.714 500.873 543.15 499.549 545.093C491.436 556.994 479.881 578.598 462.403 575.094C452.38 573.085 445.238 563.6 440.092 555.487C436.935 550.511 433.982 544.081 429.844 539.905L429.597 539.216C425.466 530.695 421.529 521.977 416.687 513.832Q411.827 512.819 407.002 511.65C403.358 507.457 388.827 492.277 388.513 488.209C382.783 481.863 375.552 476.508 368.829 471.245C345.919 452.007 327.227 433.602 307.551 411.053Q304.763 407.336 302.108 403.523C281.082 373.569 270.127 345.37 276.645 308.3C276.822 308.501 277.007 308.695 277.176 308.903C280.037 312.424 276.97 320.498 277.535 324.797C278.306 330.658 281.587 337.045 284.005 342.45C289.725 355.239 299.057 367.726 308.592 377.872C331.935 402.709 359.711 415.248 392.342 422.913C401.795 425.134 411.463 426.548 420.868 428.895C418.965 415.564 419.186 402.42 427.635 391.178C433.96 382.762 443.471 378.077 453.789 376.752Q457.494 376.289 461.227 376.25Q464.96 376.212 468.674 376.598C481.962 382.316 492.725 390.532 498.213 404.316C501.894 413.559 501.467 422.622 498.7 432.03Q509.44 431.901 520.114 430.706C525.556 430.11 531.246 429.108 536.711 428.995C541.817 429.452 547.177 428.906 552.287 428.495C585.348 425.83 618.43 412.239 646.303 394.452C666.017 381.872 691.458 360.268 696.515 336.619C702.091 310.546 687.317 271.373 672.461 250.538C662.921 237.159 638.199 213.308 624.861 203.276C618.709 198.648 597.883 187.295 594.838 182.141C594.667 181.852 594.513 181.553 594.351 181.259C590.202 178.351 585.011 177.699 581.002 174.532Z"/>
	<path fill="#931D2D" transform="matrix(1.18066 0 0 1.18066 0.000244141 0)" d="M388.513 488.209C397.231 493.549 412.585 504.031 416.687 513.832Q411.827 512.819 407.002 511.65C403.358 507.457 388.827 492.277 388.513 488.209Z"/>
	<path fill="#FBF7DF" transform="matrix(1.18066 0 0 1.18066 0.000244141 0)" d="M675.509 225.353C683.841 226.02 691.82 227.708 700.013 229.214C699.98 233.83 699.877 239.516 698.38 243.909C690.94 237.492 683.234 231.421 675.509 225.353Z"/>
	<path fill="#C8C9CC" transform="matrix(1.18066 0 0 1.18066 0.000244141 0)" d="M448.251 388.499C450.377 388.498 452.511 388.461 454.581 389.026C456.65 389.59 458.675 390.822 459.699 392.769C460.559 394.404 460.589 396.396 459.972 398.116C458.406 402.48 454.759 404.5 450.784 406.272C448.625 406.592 446.386 406.654 444.247 406.142C442.596 405.746 441.143 404.924 440.254 403.429C439.218 401.684 439.189 399.471 439.711 397.556C440.967 392.947 444.288 390.616 448.251 388.499Z"/>
	<path fill="#931D2D" transform="matrix(1.18066 0 0 1.18066 0.000244141 0)" d="M518.558 517.059C522.308 514.853 526.034 511.117 529.35 508.268Q537.935 501.032 545.892 493.112C556.052 482.803 565.956 471.149 577.75 462.725C583.125 458.886 588.791 455.764 595.617 457.056C606.846 459.181 648.43 481.28 654.902 490.562C653.169 491.199 651.439 491.881 649.674 492.425C648.915 489.855 632.532 479.14 629.337 477.411C619.076 471.857 597.32 464.636 585.746 468.441C571.046 473.273 559.408 492.77 550.953 504.861C548.263 508.708 545.269 512.357 542.492 516.147L539.084 517.321C534.299 520.142 526.899 520.261 521.427 521.13L515.628 520.881C516.54 519.211 516.866 517.985 518.558 517.059Z"/>
	<path fill="#F46338" transform="matrix(1.18066 0 0 1.18066 0.000244141 0)" d="M518.558 517.059C523.238 518.146 536.537 515.661 539.084 517.321C534.299 520.142 526.899 520.261 521.427 521.13L515.628 520.881C516.54 519.211 516.866 517.985 518.558 517.059Z"/>
	<path fill="#F46338" transform="matrix(1.18066 0 0 1.18066 0.000244141 0)" d="M542.492 516.147C545.269 512.357 548.263 508.708 550.953 504.861C559.408 492.77 571.046 473.273 585.746 468.441C597.32 464.636 619.076 471.857 629.337 477.411C632.532 479.14 648.915 489.855 649.674 492.425Q631.182 498.674 612.257 503.457Q593.333 508.241 574.092 511.53C563.599 513.336 552.956 514.311 542.492 516.147Z"/>
	<path fill="#F46338" transform="matrix(1.18066 0 0 1.18066 0.000244141 0)" d="M581.002 174.532C595.695 175.134 611.413 179.469 625.607 183.176C675.024 196.082 721.243 214.186 756.681 252.581C773.413 270.709 787.205 295.126 790.2 319.926C791.467 330.422 790.992 341.387 791.014 351.961C791.126 356.203 790.908 361 791.993 365.099C791.286 370.599 790.091 376.533 789.991 382.056C787.561 385.848 784.661 400.351 784.418 405.063C781.191 413.281 776.471 420.616 771.815 428.072C755.181 450.81 736.362 471.34 712.379 486.55L712.398 482.397C713.792 475.644 714.698 468.77 715.726 461.952C715.932 459.672 716.37 457.478 716.817 455.237C717.175 450.692 718.084 446.145 718.574 441.602C721.287 416.477 724.872 391.69 729.886 366.904C732.904 351.99 741.416 325.324 741.104 311.421C739.771 298.162 733.512 287.806 727.004 276.488C718.357 264.5 709.23 253.96 698.38 243.909C699.877 239.516 699.98 233.83 700.013 229.214C691.82 227.708 683.841 226.02 675.509 225.353C649.676 208.197 623.412 192.374 594.351 181.259C590.202 178.351 585.011 177.699 581.002 174.532Z"/>
	<path fill="#F0C894" transform="matrix(1.18066 0 0 1.18066 0.000244141 0)" d="M700.013 229.214C711.073 233.209 722.224 238.97 727.368 250.198C731.47 259.151 729.741 267.55 727.004 276.488C718.357 264.5 709.23 253.96 698.38 243.909C699.877 239.516 699.98 233.83 700.013 229.214Z"/>
	<path fill="#931D2D" transform="matrix(1.18066 0 0 1.18066 0.000244141 0)" d="M741.104 311.421C741.612 316.953 742.698 322.128 742.401 327.739C741.514 344.51 735.564 361.185 731.477 377.374C728.456 389.34 727.033 401.507 725.079 413.665C724.085 419.857 722.478 426.002 721.998 432.259C725.953 430.316 729.554 427.492 733.147 424.958C749.033 413.756 764.285 400.743 775.382 384.62C778.979 379.394 785.396 359.972 788.833 357.599L789.36 358.391C787.829 364.505 786.38 371.362 783.889 377.135L783.451 377.707C777.221 386.013 774.843 396.684 769.566 405.61C761.727 418.871 731.117 447.401 716.817 455.237C717.175 450.692 718.084 446.145 718.574 441.602C721.287 416.477 724.872 391.69 729.886 366.904C732.904 351.99 741.416 325.324 741.104 311.421Z"/>
	<path fill="#F0C894" transform="matrix(1.18066 0 0 1.18066 0.000244141 0)" d="M789.36 358.391C789.808 356.213 790.406 354.098 791.014 351.961C791.126 356.203 790.908 361 791.993 365.099C791.286 370.599 790.091 376.533 789.991 382.056C787.561 385.848 784.661 400.351 784.418 405.063C781.191 413.281 776.471 420.616 771.815 428.072C755.181 450.81 736.362 471.34 712.379 486.55L712.398 482.397C713.792 475.644 714.698 468.77 715.726 461.952C715.932 459.672 716.37 457.478 716.817 455.237C731.117 447.401 761.727 418.871 769.566 405.61C774.843 396.684 777.221 386.013 783.451 377.707L783.889 377.135C786.38 371.362 787.829 364.505 789.36 358.391Z"/>
	<path fill="#F46338" transform="matrix(1.18066 0 0 1.18066 0.000244141 0)" d="M783.889 377.135C783.612 382.346 780.962 387.256 778.984 391.984C771.328 410.289 763.616 424.365 748.602 437.956Q741.01 444.771 732.771 450.785Q724.531 456.799 715.726 461.952C715.932 459.672 716.37 457.478 716.817 455.237C731.117 447.401 761.727 418.871 769.566 405.61C774.843 396.684 777.221 386.013 783.451 377.707L783.889 377.135Z"/>
</svg>
