<?xml version="1.0" encoding="utf-8" ?>
<svg xmlns="http://www.w3.org/2000/svg" xmlns:xlink="http://www.w3.org/1999/xlink" width="1209" height="1209">
	<path fill="#F46338" transform="matrix(1.18066 0 0 1.18066 0.000244141 0)" d="M259.229 237.908Q269.017 234.984 278.924 232.495Q288.831 230.007 298.839 227.959Q308.847 225.91 318.935 224.306Q329.023 222.702 339.173 221.546Q349.322 220.389 359.513 219.682Q369.703 218.976 379.915 218.72Q390.127 218.464 400.34 218.66Q410.553 218.856 420.748 219.503C412.542 222.187 404.358 223.959 396.091 226.332C380.379 230.842 365.216 235.845 350.016 241.882C353.044 234.905 362.86 230.554 368.183 225.107C341.239 225.422 314.845 230.422 288.47 235.434C278.747 237.281 269 238.787 259.296 240.784L259.229 237.908Z"/>
	<defs>
		<linearGradient id="gradient_0" gradientUnits="userSpaceOnUse" x1="613.92267" y1="437.71741" x2="758.07788" y2="329.2532">
			<stop offset="0" stop-color="#F67C50"/>
			<stop offset="1" stop-color="#F89D6E"/>
		</linearGradient>
	</defs>
	<path fill="url(#gradient_0)" transform="matrix(1.18066 0 0 1.18066 0.000244141 0)" d="M461.647 222.993C470.737 223.765 479.936 225.842 488.864 227.66Q509.897 231.782 530.637 237.188C644.424 267.289 750.691 329.22 826.929 419.677C834.199 428.303 840.71 437.57 847.368 446.67C864.714 470.374 881.036 494.482 894.259 520.785C899.159 530.534 902.373 541.025 907.088 550.778C904.633 551.328 902.411 551.427 899.918 551.424C899.076 545.446 889.35 528.539 886.035 521.64Q877.866 504.291 867.723 488.018C860.883 476.874 821.637 418.905 813.111 415.913C813.448 415.279 813.512 415.437 813.326 414.735C811.649 408.413 792.799 391.775 787.048 388.444L767.22 388.413C773.1 386.901 781.007 387.885 787.083 387.954C777.656 377.671 766.877 368.409 756.129 359.54C731.723 339.4 708.103 323.107 681.028 306.769C677.275 304.505 673.891 301.675 670.152 299.393C665.775 296.72 660.854 294.675 656.151 292.641C650.797 285.264 634.037 283.251 626.685 278.531C622.268 274.854 612.25 271.952 606.648 269.669C594.31 264.641 582.115 259.272 569.547 254.822C544.327 245.893 517.941 239.259 491.76 233.851Q479.163 231.35 466.472 229.385C461.239 228.591 455.038 228.312 450.09 226.581C453.743 224.92 458.148 225.011 461.647 222.993Z"/>
	<path fill="#931D2D" transform="matrix(1.18066 0 0 1.18066 0.000244141 0)" d="M117.101 422.181C116.709 422.067 116.347 421.868 115.985 421.681C105.237 416.119 88.1823 382.739 84.266 370.851C81.2267 361.626 80.171 352.698 84.765 343.708C88.2548 336.88 93.7375 330.858 99.0166 325.372C123.638 299.785 154.722 282.501 186.102 266.599C196.176 261.494 206.372 255.83 217.124 252.331C209.49 259.358 200.577 264.18 192.289 270.307Q177.685 281.15 164.132 293.281Q150.578 305.411 138.187 318.727C134.734 322.455 130.406 326.716 127.778 331.056C134.065 331.286 140.778 329.358 146.911 328.073C137.668 345.19 139.987 367.351 145.408 385.343C147.662 392.825 150.432 400.656 153.795 407.705C155.894 412.106 158.634 416.338 160.293 420.931L154.682 420.986C142.067 420.965 129.664 420.827 117.101 422.181Z"/>
	<path fill="#977080" transform="matrix(1.18066 0 0 1.18066 0.000244141 0)" d="M146.911 328.073C137.668 345.19 139.987 367.351 145.408 385.343C147.662 392.825 150.432 400.656 153.795 407.705C155.894 412.106 158.634 416.338 160.293 420.931L154.682 420.986C140.917 402.259 123.662 376.495 121.438 352.99C120.668 344.847 122.529 337.427 127.778 331.056C134.065 331.286 140.778 329.358 146.911 328.073Z"/>
	<path fill="#931D2D" transform="matrix(1.18066 0 0 1.18066 0.000244141 0)" d="M420.748 219.503C434.267 219.875 448.391 220.095 461.647 222.993C458.148 225.011 453.743 224.92 450.09 226.581C442.651 227.462 435.055 229.423 427.818 231.351C398.001 239.296 370.685 252.015 343.809 266.993C338.597 269.897 331.235 272.672 327.194 277.053C327.061 277.197 326.959 277.368 326.842 277.526C312.038 286.148 259 325.79 250.488 339.503C239.439 363.721 238.367 380.555 243.884 406.634C245.864 415.995 248.063 425.256 248.674 434.837L243.058 433.382C216.311 426.405 187.772 423.512 160.293 420.931C158.634 416.338 155.894 412.106 153.795 407.705C150.432 400.656 147.662 392.825 145.408 385.343C139.987 367.351 137.668 345.19 146.911 328.073C140.778 329.358 134.065 331.286 127.778 331.056C130.406 326.716 134.734 322.455 138.187 318.727Q150.578 305.411 164.132 293.281Q177.685 281.15 192.289 270.307C200.577 264.18 209.49 259.358 217.124 252.331C230.997 246.834 244.914 242.133 259.229 237.908L259.296 240.784C269 238.787 278.747 237.281 288.47 235.434C314.845 230.422 341.239 225.422 368.183 225.107C362.86 230.554 353.044 234.905 350.016 241.882C365.216 235.845 380.379 230.842 396.091 226.332C404.358 223.959 412.542 222.187 420.748 219.503Z"/>
	<path fill="#977080" transform="matrix(1.18066 0 0 1.18066 0.000244141 0)" d="M227.598 335.536C234.75 337.99 242.933 339.27 250.488 339.503C239.439 363.721 238.367 380.555 243.884 406.634C245.864 415.995 248.063 425.256 248.674 434.837L243.058 433.382C241.497 428.377 238.86 424.043 236.953 419.212C232.166 407.078 227.872 394.249 225.26 381.446C222.743 369.11 220.181 346.687 227.598 335.536Z"/>
	<path fill="#E49C74" transform="matrix(1.18066 0 0 1.18066 0.000244141 0)" d="M217.124 252.331C230.997 246.834 244.914 242.133 259.229 237.908L259.296 240.784C231.745 254.681 191.486 283.677 169.001 304.818C161.181 312.169 154.56 320.633 146.911 328.073C140.778 329.358 134.065 331.286 127.778 331.056C130.406 326.716 134.734 322.455 138.187 318.727Q150.578 305.411 164.132 293.281Q177.685 281.15 192.289 270.307C200.577 264.18 209.49 259.358 217.124 252.331Z"/>
	<defs>
		<linearGradient id="gradient_1" gradientUnits="userSpaceOnUse" x1="321.55191" y1="252.6469" x2="360.6684" y2="301.16498">
			<stop offset="0" stop-color="#DC9C72"/>
			<stop offset="1" stop-color="#FEBD8E"/>
		</linearGradient>
	</defs>
	<path fill="url(#gradient_1)" transform="matrix(1.18066 0 0 1.18066 0.000244141 0)" d="M420.748 219.503C434.267 219.875 448.391 220.095 461.647 222.993C458.148 225.011 453.743 224.92 450.09 226.581C442.651 227.462 435.055 229.423 427.818 231.351C398.001 239.296 370.685 252.015 343.809 266.993C338.597 269.897 331.235 272.672 327.194 277.053C327.061 277.197 326.959 277.368 326.842 277.526C312.038 286.148 259 325.79 250.488 339.503C242.933 339.27 234.75 337.99 227.598 335.536C232.516 327.297 240.982 319.782 247.957 313.2C278.787 284.107 312.439 261.425 350.016 241.882C365.216 235.845 380.379 230.842 396.091 226.332C404.358 223.959 412.542 222.187 420.748 219.503Z"/>
	<path fill="#F46338" transform="matrix(1.18066 0 0 1.18066 0.000244141 0)" d="M326.842 277.526C326.959 277.368 327.061 277.197 327.194 277.053C331.235 272.672 338.597 269.897 343.809 266.993C370.685 252.015 398.001 239.296 427.818 231.351C435.055 229.423 442.651 227.462 450.09 226.581C455.038 228.312 461.239 228.591 466.472 229.385Q479.163 231.35 491.76 233.851C517.941 239.259 544.327 245.893 569.547 254.822C582.115 259.272 594.31 264.641 606.648 269.669C612.25 271.952 622.268 274.854 626.685 278.531C611.823 278.362 597.267 278.604 582.502 280.57C532.708 287.199 474.949 310.564 438.649 346.04Q438.249 346.431 437.855 346.829C435.777 359.357 426.071 369.849 427.055 383.902C422.021 388.577 416.626 394.818 412.686 400.459C405.69 396.967 397.242 395.253 391.217 390.051L390.875 390.17C382.305 385.176 372.552 381.379 363.44 377.415C345.57 369.641 327.477 361.976 309.07 355.56C309.229 354.96 309.366 354.358 309.518 353.756C310.638 349.317 310.45 344.701 310.773 340.156C311.247 333.487 311.937 326.776 313.199 320.21Q314.518 313.134 316.478 306.208Q318.438 299.282 321.023 292.564C322.95 287.493 325.268 282.75 326.842 277.526Z"/>
	<path fill="#E49C74" transform="matrix(1.18066 0 0 1.18066 0.000244141 0)" d="M391.217 390.051C397.319 379.035 426.856 353.198 437.855 346.829C435.777 359.357 426.071 369.849 427.055 383.902C422.021 388.577 416.626 394.818 412.686 400.459C405.69 396.967 397.242 395.253 391.217 390.051Z"/>
	<path fill="#F46338" transform="matrix(1.18066 0 0 1.18066 0.000244141 0)" d="M720.675 664.592C731.131 658.576 740.519 650.385 751.155 644.525C782.788 627.097 817.104 613.484 850.94 600.983C872.408 593.051 894.597 584.679 917.254 580.986C920.99 593.254 925.575 605.251 929.378 617.497C937.535 643.763 942.129 670.871 940.677 698.414C940.099 709.384 939.041 720.594 933.761 730.424C921.827 752.645 900.172 770.032 876.024 777.232Q872.437 778.306 868.797 779.183Q865.156 780.059 861.474 780.737Q857.791 781.414 854.077 781.89Q850.363 782.365 846.628 782.638Q842.894 782.911 839.15 782.98Q835.406 783.049 831.664 782.914Q827.922 782.779 824.193 782.44Q820.464 782.101 816.759 781.56C811.126 780.759 805.322 778.881 799.716 778.412C793.168 775.884 786.473 773.758 779.961 771.129C761.194 763.551 741.116 753.334 724.795 741.41C709.904 730.418 695.416 719.19 681.04 707.522C686.046 695.127 709.794 673.151 720.558 664.832L720.675 664.592Z"/>
	<path fill="#931D2D" transform="matrix(1.18066 0 0 1.18066 0.000244141 0)" d="M720.558 664.832C725.878 671.095 731.15 677.278 737.001 683.059C734.705 696.128 730.013 730.318 724.795 741.41C709.904 730.418 695.416 719.19 681.04 707.522C686.046 695.127 709.794 673.151 720.558 664.832Z"/>
	<path fill="#E49C74" transform="matrix(1.18066 0 0 1.18066 0.000244141 0)" d="M914.961 631.555C915.107 631.718 915.273 631.865 915.399 632.044C921.583 640.783 924.472 673.886 923.712 684.262C922.718 697.852 917.811 711.262 907.262 720.313C896.368 729.66 879.567 734.399 865.377 733.248C861.954 732.92 858.37 732.823 855.337 731.057C854.572 729.867 854.47 729.278 854.685 727.858C855.695 721.184 859.84 713.844 862.45 707.566C874.522 678.528 888.25 649.927 914.961 631.555Z"/>
	<path fill="#F46338" transform="matrix(1.18066 0 0 1.18066 0.000244141 0)" d="M437.855 346.829Q438.249 346.431 438.649 346.04C474.949 310.564 532.708 287.199 582.502 280.57C597.267 278.604 611.823 278.362 626.685 278.531C634.037 283.251 650.797 285.264 656.151 292.641C660.854 294.675 665.775 296.72 670.152 299.393C673.891 301.675 677.275 304.505 681.028 306.769C708.103 323.107 731.723 339.4 756.129 359.54C766.877 368.409 777.656 377.671 787.083 387.954C781.007 387.885 773.1 386.901 767.22 388.413C750.115 389.443 732.545 391.52 715.95 395.937C661.625 410.397 609.494 448.712 572.574 490.369C567.982 495.551 562.794 500.967 558.909 506.687L558.47 507.143C553.881 503.893 549.665 498.997 545.491 495.176Q531.324 482.02 516.427 469.698C504.155 459.679 491.644 449.702 478.595 440.713C457.578 426.237 435.044 413.357 412.817 400.82L412.686 400.459C416.626 394.818 422.021 388.577 427.055 383.902C426.071 369.849 435.777 359.357 437.855 346.829Z"/>
	<path fill="#F0C098" transform="matrix(1.18066 0 0 1.18066 0.000244141 0)" d="M437.855 346.829Q438.249 346.431 438.649 346.04C474.949 310.564 532.708 287.199 582.502 280.57C597.267 278.604 611.823 278.362 626.685 278.531C634.037 283.251 650.797 285.264 656.151 292.641C646.808 291.241 636.622 292.586 627.239 293.388C565.891 298.635 503.525 325.578 454.295 361.999Q440.151 372.299 427.055 383.902C426.071 369.849 435.777 359.357 437.855 346.829Z"/>
	<path fill="#64CFD0" transform="matrix(1.18066 0 0 1.18066 0.000244141 0)" d="M160.293 420.931C187.772 423.512 216.311 426.405 243.058 433.382L248.674 434.837C258.953 437.579 269.112 441.01 279.393 443.641C277.066 465.204 284.509 492.341 298.117 509.26C307.93 521.459 324.276 533.999 340.316 535.661C343.533 559.661 353.425 580.388 373.006 595.274C383.65 603.366 396.508 608.672 409.585 611.278C417.362 633.052 429.583 651.831 451.051 662.056C462.565 667.539 475.284 669.737 487.975 669.811C492.302 678.245 496.579 686.841 501.926 694.688C519.068 719.85 545.342 741.528 574.604 750.861C585.829 754.441 597.75 755.693 609.347 753.149C634.821 778.344 667.703 794.808 704.148 794.812C711.175 794.812 718.152 793.318 725.17 793.38C718.902 797.316 711.842 800.477 704.859 802.891C686.936 809.086 669.499 809.185 652.301 800.808C646.181 802.452 640.09 803.855 633.757 804.357C612.519 806.04 579.517 798.621 562.991 784.477C560.528 784.982 558.116 785.349 555.604 785.497C532.805 786.833 501.767 777.238 484.764 762.026C482.787 762.261 480.792 762.502 478.798 762.485C455.148 762.295 420.614 748.831 404.067 731.855Q402.159 731.925 400.25 731.883C376.882 731.244 350.308 716.906 334.455 700.216C308.091 696.696 286.257 680.648 270.148 660.108Q265.057 659.053 260.251 657.068C240.047 648.769 222.902 632.514 214.45 612.339C196.244 607.65 180.141 590.774 171.189 574.858C167.933 569.069 165.98 562.523 162.248 557.004C160.03 553.724 156.581 550.952 153.857 548.061C140.27 533.638 134.643 512.05 135.221 492.701C123.547 471.934 120.636 455.559 123.705 431.866L117.101 422.181C129.664 420.827 142.067 420.965 154.682 420.986L160.293 420.931Z"/>
	<path fill="#F46338" transform="matrix(1.18066 0 0 1.18066 0.000244141 0)" d="M767.22 388.413L787.048 388.444C792.799 391.775 811.649 408.413 813.326 414.735C813.512 415.437 813.448 415.279 813.111 415.913C821.637 418.905 860.883 476.874 867.723 488.018Q877.866 504.291 886.035 521.64C889.35 528.539 899.076 545.446 899.918 551.424C902.411 551.427 904.633 551.328 907.088 550.778C910.869 560.772 914.05 570.806 917.254 580.986C894.597 584.679 872.408 593.051 850.94 600.983C817.104 613.484 782.788 627.097 751.155 644.525C740.519 650.385 731.131 658.576 720.675 664.592L720.558 664.832C709.794 673.151 686.046 695.127 681.04 707.522Q677.662 705.297 674.531 702.737Q671.4 700.176 668.548 697.308Q601.979 638.351 533.093 582.12C543.309 559.959 555.982 537.87 573.581 520.651L573.652 520.316C573.609 520.273 573.57 520.226 573.523 520.186C568.462 515.878 563.915 511.057 558.909 506.687C562.794 500.967 567.982 495.551 572.574 490.369C609.494 448.712 661.625 410.397 715.95 395.937C732.545 391.52 750.115 389.443 767.22 388.413Z"/>
	<path fill="#FBF7DF" transform="matrix(1.18066 0 0 1.18066 0.000244141 0)" d="M907.088 550.778C910.869 560.772 914.05 570.806 917.254 580.986C894.597 584.679 872.408 593.051 850.94 600.983C817.104 613.484 782.788 627.097 751.155 644.525C740.519 650.385 731.131 658.576 720.675 664.592C717.03 659.091 710.996 654.355 706.668 649.207C722.683 636.262 737.953 622.631 754.795 610.709C790.711 585.285 837.206 562.267 880.61 554.022C886.87 552.833 893.544 551.522 899.918 551.424C902.411 551.427 904.633 551.328 907.088 550.778Z"/>
	<path fill="#FBF7DF" transform="matrix(1.18066 0 0 1.18066 0.000244141 0)" d="M767.22 388.413L787.048 388.444C792.799 391.775 811.649 408.413 813.326 414.735C813.512 415.437 813.448 415.279 813.111 415.913C793.125 416.347 773.395 416.765 753.621 420.084C702.98 428.582 644.873 457.517 605.406 490.09C594.024 499.483 584.5 510.454 573.652 520.316C573.609 520.273 573.57 520.226 573.523 520.186C568.462 515.878 563.915 511.057 558.909 506.687C562.794 500.967 567.982 495.551 572.574 490.369C609.494 448.712 661.625 410.397 715.95 395.937C732.545 391.52 750.115 389.443 767.22 388.413Z"/>
	<path fill="#931D2D" transform="matrix(1.18066 0 0 1.18066 0.000244141 0)" d="M573.581 520.651C582.211 526.767 590.232 534.736 598.216 541.693Q637.728 575.979 673.898 613.774C679.44 619.484 702.661 647.391 706.115 649.321L706.668 649.207C710.996 654.355 717.03 659.091 720.675 664.592L720.558 664.832C709.794 673.151 686.046 695.127 681.04 707.522Q677.662 705.297 674.531 702.737Q671.4 700.176 668.548 697.308Q601.979 638.351 533.093 582.12C543.309 559.959 555.982 537.87 573.581 520.651Z"/>
	<path fill="#E49C74" transform="matrix(1.18066 0 0 1.18066 0.000244141 0)" d="M706.115 649.321L706.668 649.207C710.996 654.355 717.03 659.091 720.675 664.592L720.558 664.832C709.794 673.151 686.046 695.127 681.04 707.522Q677.662 705.297 674.531 702.737Q671.4 700.176 668.548 697.308C672.165 690.608 675.711 683.697 680.039 677.424C687.311 666.883 696.815 658.041 706.115 649.321Z"/>
	<path fill="#FBF7DF" transform="matrix(1.18066 0 0 1.18066 0.000244141 0)" d="M250.488 339.503C259 325.79 312.038 286.148 326.842 277.526C325.268 282.75 322.95 287.493 321.023 292.564Q318.438 299.282 316.478 306.208Q314.518 313.134 313.199 320.21C311.937 326.776 311.247 333.487 310.773 340.156C310.45 344.701 310.638 349.317 309.518 353.756C309.366 354.358 309.229 354.96 309.07 355.56C327.477 361.976 345.57 369.641 363.44 377.415C372.552 381.379 382.305 385.176 390.875 390.17L391.217 390.051C397.242 395.253 405.69 396.967 412.686 400.459L412.817 400.82C435.044 413.357 457.578 426.237 478.595 440.713C491.644 449.702 504.155 459.679 516.427 469.698Q531.324 482.02 545.491 495.176C549.665 498.997 553.881 503.893 558.47 507.143L558.909 506.687C563.915 511.057 568.462 515.878 573.523 520.186C573.57 520.226 573.609 520.273 573.652 520.316L573.581 520.651C555.982 537.87 543.309 559.959 533.093 582.12Q601.979 638.351 668.548 697.308Q671.4 700.176 674.531 702.737Q677.662 705.297 681.04 707.522C695.416 719.19 709.904 730.418 724.795 741.41C741.116 753.334 761.194 763.551 779.961 771.129C786.473 773.758 793.168 775.884 799.716 778.412C784.322 789.12 761.867 794.211 743.281 793.752C737.403 793.607 730.98 791.912 725.17 793.38C718.152 793.318 711.175 794.812 704.148 794.812C667.703 794.808 634.821 778.344 609.347 753.149C597.75 755.693 585.829 754.441 574.604 750.861C545.342 741.528 519.068 719.85 501.926 694.688C496.579 686.841 492.302 678.245 487.975 669.811C475.284 669.737 462.565 667.539 451.051 662.056C429.583 651.831 417.362 633.052 409.585 611.278C396.508 608.672 383.65 603.366 373.006 595.274C353.425 580.388 343.533 559.661 340.316 535.661C324.276 533.999 307.93 521.459 298.117 509.26C284.509 492.341 277.066 465.204 279.393 443.641C269.112 441.01 258.953 437.579 248.674 434.837C248.063 425.256 245.864 415.995 243.884 406.634C238.367 380.555 239.439 363.721 250.488 339.503Z"/>
	<path fill="#931D2D" transform="matrix(1.18066 0 0 1.18066 0.000244141 0)" d="M380.484 482.573C386.53 455.925 394.992 422.077 412.817 400.82C435.044 413.357 457.578 426.237 478.595 440.713C491.644 449.702 504.155 459.679 516.427 469.698Q531.324 482.02 545.491 495.176C549.665 498.997 553.881 503.893 558.47 507.143L558.909 506.687C563.915 511.057 568.462 515.878 573.523 520.186C573.57 520.226 573.609 520.273 573.652 520.316L573.581 520.651C555.982 537.87 543.309 559.959 533.093 582.12C529.444 579.582 525.713 576.839 522.747 573.505C491.89 548.711 458.232 526.992 424.204 506.851C409.872 498.368 395.571 489.662 380.484 482.573Z"/>
	<path fill="#E49C74" transform="matrix(1.18066 0 0 1.18066 0.000244141 0)" d="M558.47 507.143L558.909 506.687C563.915 511.057 568.462 515.878 573.523 520.186C573.57 520.226 573.609 520.273 573.652 520.316L573.581 520.651C555.982 537.87 543.309 559.959 533.093 582.12C529.444 579.582 525.713 576.839 522.747 573.505C527.006 565.592 529.437 556.35 533.079 548.078C539.57 533.333 548.879 520.001 558.47 507.143Z"/>
	<path fill="#931D2D" transform="matrix(1.18066 0 0 1.18066 0.000244141 0)" d="M250.488 339.503C259 325.79 312.038 286.148 326.842 277.526C325.268 282.75 322.95 287.493 321.023 292.564Q318.438 299.282 316.478 306.208Q314.518 313.134 313.199 320.21C311.937 326.776 311.247 333.487 310.773 340.156C310.45 344.701 310.638 349.317 309.518 353.756C309.366 354.358 309.229 354.96 309.07 355.56C327.477 361.976 345.57 369.641 363.44 377.415C372.552 381.379 382.305 385.176 390.875 390.17L391.217 390.051C397.242 395.253 405.69 396.967 412.686 400.459L412.817 400.82C394.992 422.077 386.53 455.925 380.484 482.573C377.718 481.285 375.051 479.954 372.412 478.419C364.288 474.941 356.307 471.097 348.106 467.8C325.522 458.722 302.593 450.987 279.393 443.641C269.112 441.01 258.953 437.579 248.674 434.837C248.063 425.256 245.864 415.995 243.884 406.634C238.367 380.555 239.439 363.721 250.488 339.503Z"/>
	<path fill="#977080" transform="matrix(1.18066 0 0 1.18066 0.000244141 0)" d="M391.217 390.051C397.242 395.253 405.69 396.967 412.686 400.459L412.817 400.82C394.992 422.077 386.53 455.925 380.484 482.573C377.718 481.285 375.051 479.954 372.412 478.419C373.796 475.256 371 465.462 370.973 461.418C370.838 440.784 378.441 407.104 390.875 390.17L391.217 390.051Z"/>
</svg>
